
<svg xmlns="http://www.w3.org/2000/svg" viewBox="0 0 40 32"><g fill="none" fill-rule="evenodd"><path fill="#2557D6" d="M0 32h40V0H0z"/><path fill="#FFF" d="M6.63 16.5h2.44l.58-1.39.58 1.4h9.63v-1l.86 1h4.98l.86-1.03V16.5h2.38l.58-1.39.58 1.4h2.52v-6.1h-2.5l-.46 1.3-.5-1.3h-2.75v.9l-.7-.9h-9.62l-.43 1.28-.43-1.29H10.9v.92l-.67-.92H7.35L6.63 12.3l-.7-1.9H3.05v6.1h2.4l.58-1.39.59 1.4zM33.3 15.74h-1.48l-1.2-1.37-1.18 1.37h-4.63l-.26-.61h-1.91l-.26.6h-1.79l1.18-2.76-1.85-2.09h1.8l1.2 1.35 1.17-1.35h1.8l-1.8 2.03 1.84 2.82h1.8l-2.1-4.85h1.29l1.71 3.64.73-3.64h1.36l.73 3.64 1.7-3.64h1.3l-2.1 4.85h1.75zm-16.8-2.33l-.63-1.5-.63 1.5h1.26zm-4.54 2.33h-5.12v-4.85h5.05v1.03h-3.8v.88h3.7v1h-3.7v.9h3.87v1.04zm-6.64-3.47l-2.05 3.47h-1.37l2.05-3.47-2.05-3.47h1.38l2.04 3.47z"/></g></svg>
