
<svg xmlns="http://www.w3.org/2000/svg" viewBox="0 0 165.52 105.97"><defs><style>.cls-1{fill:#231f20;}</style></defs><title>Apple_Pay_Mark_RGB_041619</title><g id="Layer_2" data-name="Layer 2"><g id="Layer_1-2" data-name="Layer 1"><path class="cls-1" d="M150.7,0H14.82C6.64,0,0,6.64,0,14.82V91.15c0,8.19,6.64,14.82,14.82,14.82H150.7c8.19,0,14.82-6.64,14.82-14.82V14.82C165.52,6.64,158.89,0,150.7,0Z"/><path d="M42.41,32.48a9.12,9.12,0,0,0-5.95,2.75,8.76,8.76,0,0,0-2.34,6.1,7.27,7.27,0,0,0,2.44,5.89,9.59,9.59,0,0,0,6,2.14,13.15,13.15,0,0,0,5.36-1.3V45.94a11.64,11.64,0,0,1-5.31,1.46,6.24,6.24,0,0,1-3.84-1.17,3.69,3.69,0,0,1-1.56-3.09,4.78,4.78,0,0,1,1.61-3.55,5.4,5.4,0,0,1,3.89-1.56,11.23,11.23,0,0,1,5.21,1.51V37.41A12.66,12.66,0,0,0,42.41,32.48Z" style="fill:#fff"/><path d="M55.94,32.48a9.12,9.12,0,0,0-5.95,2.75,8.76,8.76,0,0,0-2.34,6.1A7.27,7.27,0,0,0,50.09,47.22a9.59,9.59,0,0,0,6,2.14,13.15,13.15,0,0,0,5.36-1.3V45.94a11.64,11.64,0,0,1-5.31,1.46,6.24,6.24,0,0,1-3.84-1.17,3.69,3.69,0,0,1-1.56-3.09,4.78,4.78,0,0,1,1.61-3.55,5.4,5.4,0,0,1,3.89-1.56,11.23,11.23,0,0,1,5.21,1.51V37.41A12.66,12.66,0,0,0,55.94,32.48Z" style="fill:#fff"/><path d="M75.66,32.69H72.5L66.08,49.05h3.58l1.09-3.09h5.83l1.14,3.09h3.68Zm-3.94,10.5,1.93-5.31c.21-.57.47-1.51.78-2.81h.05c.16.68.42,1.61.78,2.81l1.93,5.31Z" style="fill:#fff"/><path d="M97.13,36.42a4.67,4.67,0,0,0-3-1,4.9,4.9,0,0,0-3.89,1.77,6.73,6.73,0,0,0-1.51,4.55,6.59,6.59,0,0,0,1.51,4.55,5.11,5.11,0,0,0,4,1.67,4.39,4.39,0,0,0,2.86-.94v.42a3.21,3.21,0,0,1-.94,2.44,3.7,3.7,0,0,1-2.6.88,6.81,6.81,0,0,1-3.94-1.35v3a8.33,8.33,0,0,0,4.09,1,7.11,7.11,0,0,0,5.1-1.82,6.46,6.46,0,0,0,1.93-5V35.68h-3.63Zm-2.6,8.56a2.26,2.26,0,0,1-1.82-.78,3.35,3.35,0,0,1-.68-2.24,3.42,3.42,0,0,1,.68-2.24,2.26,2.26,0,0,1,1.82-.78,2.2,2.2,0,0,1,1.77.73,3.39,3.39,0,0,1,.62,2.19,3.8,3.8,0,0,1-.62,2.34A2.11,2.11,0,0,1,94.53,45Z" style="fill:#fff"/><path d="M110.13,32.69h-3.63V49.05h3.63Z" style="fill:#fff"/><path d="M124.17,45.94a11.64,11.64,0,0,1-5.31,1.46,6.24,6.24,0,0,1-3.84-1.17,3.69,3.69,0,0,1-1.56-3.09,4.78,4.78,0,0,1,1.61-3.55,5.4,5.4,0,0,1,3.89-1.56,11.23,11.23,0,0,1,5.21,1.51V37.41a12.66,12.66,0,0,0-5.31-4.92,9.12,9.12,0,0,0-5.95,2.75,8.76,8.76,0,0,0-2.34,6.1,7.27,7.27,0,0,0,2.44,5.89,9.59,9.59,0,0,0,6,2.14,13.15,13.15,0,0,0,5.36-1.3V45.94Z" style="fill:#fff"/><path d="M132.13,38.82a7.52,7.52,0,0,1,2.7-.52c1.72,0,2.6.73,2.6,2.19v.68a8.08,8.08,0,0,0-3.37.78,4.52,4.52,0,0,0-2,4,3.82,3.82,0,0,0,1.14,2.91,4.12,4.12,0,0,0,2.91,1.09,4.79,4.79,0,0,0,3.78-1.77h.1l.42,1.46h3.06V40.59q0-7.9-7.22-7.9a13.88,13.88,0,0,0-4.14.68ZM137.44,45a2.31,2.31,0,0,1-2.08,1.09,1.64,1.64,0,0,1-1.14-.36,1.23,1.23,0,0,1-.42-1,1.91,1.91,0,0,1,1-1.67,5.42,5.42,0,0,1,2.65-.62Z" style="fill:#fff"/><path d="M55.21,60.82a8.39,8.39,0,0,1,1.61-.16c2.5,0,4.21,1.25,4.21,3.55a3.47,3.47,0,0,1-3.76,3.76,5.87,5.87,0,0,1-2.06-.31Zm1.09,5.88a3.84,3.84,0,0,0,1.25.16c1.66,0,2.81-1,2.81-2.55s-1.14-2.5-2.7-2.5a4.61,4.61,0,0,0-1.35.16Z" style="fill:#fff"/><path d="M68.33,67.88l-.1-.83h0a2.54,2.54,0,0,1-2.08,1,1.93,1.93,0,0,1-2.08-1.93c0-1.61,1.46-2.5,4-2.5v-.1c0-.52-.16-1.51-1.51-1.51a3.22,3.22,0,0,0-1.77.52l-.31-.83a4.29,4.29,0,0,1,2.24-.62c2.08,0,2.6,1.4,2.6,2.7v2.5a10.11,10.11,0,0,0,.1,1.61ZM68.12,64.5c-1.3,0-2.86.21-2.86,1.51a1.08,1.08,0,0,0,1.14,1.14,1.72,1.72,0,0,0,1.61-1.09,1.09,1.09,0,0,0,.1-.42Z" style="fill:#fff"/><path d="M71.45,60.09h1.09v7.79H71.45Z" style="fill:#fff"/><path d="M75.09,60.09h1.09v7.79H75.09Z" style="fill:#fff"/><path d="M84.06,67.88l-.1-.83h0a2.54,2.54,0,0,1-2.08,1,1.93,1.93,0,0,1-2.08-1.93c0-1.61,1.46-2.5,4-2.5v-.1c0-.52-.16-1.51-1.51-1.51a3.22,3.22,0,0,0-1.77.52l-.31-.83a4.29,4.29,0,0,1,2.24-.62c2.08,0,2.6,1.4,2.6,2.7v2.5a10.11,10.11,0,0,0,.1,1.61ZM83.85,64.5c-1.3,0-2.86.21-2.86,1.51a1.08,1.08,0,0,0,1.14,1.14,1.72,1.72,0,0,0,1.61-1.09,1.09,1.09,0,0,0,.1-.42Z" style="fill:#fff"/><path d="M87.19,66.32a2.61,2.61,0,0,0,1.35.42c.73,0,1.09-.36,1.09-.83s-.31-.73-1.09-1c-1.09-.36-1.56-.94-1.56-1.66,0-1,.78-1.72,2.08-1.72a2.71,2.71,0,0,1,1.35.31l-.26.88a2.22,2.22,0,0,0-1.14-.31c-.57,0-.94.31-.94.73s.31.62,1.09.94c1,.42,1.56.94,1.56,1.77s-.78,1.77-2.24,1.77a3.39,3.39,0,0,1-1.66-.42Z" style="fill:#fff"/><path d="M98.31,67.88V64c0-.94-.36-1.72-1.4-1.72a1.52,1.52,0,0,0-1.46,1.09,1.35,1.35,0,0,0-.1.57v3.94H94.26V63.67c0-.73,0-1.35-.05-1.93h1l.05,1.14h0a2.26,2.26,0,0,1,2.08-1.3c.88,0,2.19.52,2.19,2.7v3.58Z" style="fill:#fff"/><path d="M101.43,67.88V60.09H102.52v7.79Z" style="fill:#fff"/><path d="M111.5,63.57c0,.42-.05.94-.05,1.66v3.53c0,1.4-.31,2.24-.94,2.81a3.52,3.52,0,0,1-2.39.78,4.21,4.21,0,0,1-2.19-.52l.31-.88a3.68,3.68,0,0,0,1.93.52c1.25,0,2.14-.62,2.14-2.29v-.68h0a2.3,2.3,0,0,1-2.08,1.09,2.6,2.6,0,0,1-2.5-2.81,2.85,2.85,0,0,1,2.65-3.06,2.11,2.11,0,0,1,2,1.09h0l.05-1Zm-1.09,2.39a1.61,1.61,0,0,0-.05-.52,1.7,1.7,0,0,0-1.66-1.25c-1.14,0-2,1-2,2.44,0,1.25.68,2.29,1.93,2.29a1.74,1.74,0,0,0,1.66-1.25,2.09,2.09,0,0,0,.1-.62Z" style="fill:#fff"/><path d="M113.58,60.09a.68.68,0,0,1-1.35,0,.65.65,0,0,1,.68-.68A.63.63,0,0,1,113.58,60.09Zm-1.25,7.79V61.75h1.09v6.13Z" style="fill:#fff"/><path d="M115.66,67.88V60.09h1.09v7.79Z" style="fill:#fff"/><path d="M124.69,64.76c0,2.24-1.56,3.22-3.06,3.22a2.92,2.92,0,0,1-2.91-3.11,3,3,0,0,1,3-3.22C123.34,61.64,124.69,62.78,124.69,64.76Zm-4.88.05c0,1.35.78,2.34,1.88,2.34s1.88-1,1.88-2.39c0-1-.52-2.34-1.88-2.34S119.81,63.67,119.81,64.81Z" style="fill:#fff"/><path d="M126.77,63.78c0-.62,0-1.14-.05-1.61h1l.05,1h0a2.34,2.34,0,0,1,2.14-1.14c.94,0,2.34.57,2.34,2.86v4h-1.09V65c0-1.09-.42-2-1.56-2a1.75,1.75,0,0,0-1.66,1.25,1.59,1.59,0,0,0-.1.62v3h-1.09Z" style="fill:#fff"/></g></g></svg>
