
<svg width="85" height="24" viewBox="0 0 85 24" fill="none" xmlns="http://www.w3.org/2000/svg"><path d="M77.5 0H71.1V24H77.5V0Z" fill="#FFB3C7"/><path d="M0 24H6.5V0H0V24Z" fill="#0A0B09"/><path d="M11.8 7.5C11.8 10.3 14.1 12.5 17.1 12.5H20.4V17.5C20.4 21.1 17.5 24 13.9 24H11.8V7.5Z" fill="#0A0B09"/><path d="M48.3 15.7C46.9 14.3 46.1 12.4 46.1 10.3C46.1 5.8 49.8 2.1 54.3 2.1C58.8 2.1 62.5 5.8 62.5 10.3C62.5 12.4 61.7 14.3 60.3 15.7L65.3 20.7C67.9 17.6 69.5 13.7 69.5 9.4C69.5 2.6 64.1 0 58.6 0H49.9C44.4 0 39 2.6 39 9.4C39 13.7 40.6 17.6 43.2 20.7L48.3 15.7Z" fill="#0A0B09"/><path d="M31.1 0L23.1 24H30.4L38.4 0H31.1Z" fill="#0A0B09"/><path d="M84.9 0L76.9 24H84.2L92.2 0H84.9Z" fill="#0A0B09"/></svg>
