
<svg width="101" height="24" viewBox="0 0 101 24" fill="none" xmlns="http://www.w3.org/2000/svg"><path d="M38.4 9.40002H34.8C34.5 9.40002 34.3 9.60002 34.2 9.90002L32.4 21.5C32.4 21.7 32.5 21.8 32.7 21.8H34.4C34.7 21.8 34.9 21.6 35 21.3L35.5 18.2C35.5 17.9 35.8 17.7 36.1 17.7H37.3C40.1 17.7 41.6 16.4 42 13.8C42.2 12.7 42 11.8 41.5 11.2C40.8 10.1 39.8 9.40002 38.4 9.40002ZM38.9 13.9C38.7 15.4 37.5 15.4 36.4 15.4H35.8L36.3 12.4C36.3 12.2 36.5 12.1 36.7 12.1H36.9C37.7 12.1 38.4 12.1 38.8 12.5C39 12.8 39.1 13.3 38.9 13.9Z" fill="#253B80"/><path d="M50.8 13.8H49.1C48.9 13.8 48.7 13.9 48.7 14.1L48.6 14.6L48.5 14.4C48 13.8 47.1 13.6 46.2 13.6C44.1 13.6 42.3 15.2 42 17.2C41.8 18.2 42.1 19.1 42.7 19.8C43.2 20.4 44 20.7 44.9 20.7C46.6 20.7 47.5 19.6 47.5 19.6L47.4 20.1C47.4 20.3 47.5 20.4 47.7 20.4H49.3C49.6 20.4 49.8 20.2 49.9 19.9L50.9 14.1C51 14 50.9 13.8 50.8 13.8ZM47.9 17.3C47.7 18.3 46.9 18.9 45.9 18.9C45.4 18.9 45 18.7 44.7 18.4C44.4 18.1 44.3 17.6 44.4 17.1C44.6 16.1 45.4 15.4 46.4 15.4C46.9 15.4 47.3 15.6 47.6 15.9C47.9 16.3 48 16.8 47.9 17.3Z" fill="#253B80"/><path d="M61.3 13.8H59.6C59.4 13.8 59.2 13.9 59.1 14.1L56.8 20.3L55.7 14.3C55.7 14 55.4 13.8 55.2 13.8H53.5C53.3 13.8 53.1 14 53.2 14.2L55.1 22.1L53.3 24.8C53.2 25 53.3 25.3 53.5 25.3H55.2C55.4 25.3 55.6 25.2 55.7 25L61.5 14.3C61.6 14 61.5 13.8 61.3 13.8Z" fill="#253B80"/><path d="M69.2 9.40002H65.6C65.3 9.40002 65.1 9.60002 65 9.90002L63.2 21.5C63.2 21.7 63.3 21.8 63.5 21.8H65.3C65.5 21.8 65.7 21.7 65.7 21.5L66.3 18.2C66.3 17.9 66.6 17.7 66.9 17.7H68.1C70.9 17.7 72.4 16.4 72.8 13.8C73 12.7 72.8 11.8 72.3 11.2C71.6 10.1 70.6 9.40002 69.2 9.40002ZM69.7 13.9C69.5 15.4 68.3 15.4 67.2 15.4H66.6L67.1 12.4C67.1 12.2 67.3 12.1 67.5 12.1H67.7C68.5 12.1 69.2 12.1 69.6 12.5C69.8 12.8 69.9 13.3 69.7 13.9Z" fill="#179BD7"/><path d="M81.6 13.8H79.9C79.7 13.8 79.5 13.9 79.5 14.1L79.4 14.6L79.3 14.4C78.8 13.8 77.9 13.6 77 13.6C74.9 13.6 73.1 15.2 72.8 17.2C72.6 18.2 72.9 19.1 73.5 19.8C74 20.4 74.8 20.7 75.7 20.7C77.4 20.7 78.3 19.6 78.3 19.6L78.2 20.1C78.2 20.3 78.3 20.4 78.5 20.4H80.1C80.4 20.4 80.6 20.2 80.7 19.9L81.7 14.1C81.8 14 81.7 13.8 81.6 13.8ZM78.7 17.3C78.5 18.3 77.7 18.9 76.7 18.9C76.2 18.9 75.8 18.7 75.5 18.4C75.2 18.1 75.1 17.6 75.2 17.1C75.4 16.1 76.2 15.4 77.2 15.4C77.7 15.4 78.1 15.6 78.4 15.9C78.7 16.3 78.8 16.8 78.7 17.3Z" fill="#179BD7"/><path d="M83.7 10L82 21.5C82 21.7 82.1 21.8 82.3 21.8H83.8C84.1 21.8 84.3 21.6 84.4 21.3L86.1 9.80002C86.1 9.60002 86 9.50002 85.8 9.50002H84C83.9 9.40002 83.8 9.60002 83.7 10Z" fill="#179BD7"/><path d="M12.3 22.6L12.7 20.1L11.8 20H6.80001L9.90001 3.10002C9.90001 3.00002 10 2.90002 10.1 2.90002H16.1C18.2 2.90002 19.6 3.40002 20.3 4.40002C20.6 4.90002 20.8 5.30002 20.8 5.90002C20.8 6.30002 20.8 6.70002 20.7 7.20002L20.6 7.60002V8.00002L21 8.30002C21.3 8.50002 21.5 8.70002 21.7 9.00002C21.9 9.40002 22 9.90002 22 10.5C22 11.1 21.9 11.7 21.6 12.3C21.4 12.8 21 13.3 20.6 13.7C20.2 14.1 19.7 14.4 19.1 14.6C18.5 14.8 17.9 14.9 17.2 14.9H16.8C16.4 14.9 16 15.1 15.7 15.3C15.4 15.6 15.2 15.9 15.2 16.3L15.1 16.6L14.4 21.1L14.3 21.3C14.3 21.4 14.3 21.4 14.2 21.4H14.1H12.3" fill="#253B80"/><path d="M21.3 7.30002C21.3 7.40002 21.3 7.50002 21.3 7.60002C20.5 11.8 17.6 13.4 14 13.4H12.2C11.8 13.4 11.4 13.7 11.3 14.1L10.3 20.6L10.1 21.9C10.1 22.2 10.3 22.4 10.6 22.4H14.1C14.5 22.4 14.8 22.1 14.9 21.8V21.7L15.6 17.3V17.2C15.6 16.9 16 16.6 16.3 16.6H16.8C19.9 16.6 22.4 15.2 23.1 11.6C23.4 10.1 23.2 8.80002 22.4 7.90002C22.1 7.70002 21.7 7.50002 21.3 7.30002Z" fill="#179BD7"/><path d="M20.4 6.90002C20.2 6.80002 20.1 6.80002 19.9 6.70002C19.7 6.70002 19.6 6.60002 19.4 6.60002C18.7 6.50002 17.9 6.50002 17 6.50002H12.8C12.7 6.50002 12.6 6.50002 12.5 6.60002C12.3 6.70002 12.1 6.90002 12.1 7.10002L11 14.2V14.3C11 14 11.4 13.7 11.8 13.7H13.6C17.2 13.7 20.1 12.1 20.9 7.90002C20.9 7.80002 20.9 7.70002 20.9 7.60002C20.8 7.40002 20.7 7.20002 20.5 7.10002C20.5 7.00002 20.4 7.00002 20.4 6.90002Z" fill="#222D65"/><path d="M12.1 7.10002C12.1 6.90002 12.3 6.70002 12.5 6.60002C12.6 6.50002 12.7 6.50002 12.8 6.50002H17C17.9 6.50002 18.7 6.50002 19.4 6.60002C19.6 6.60002 19.7 6.60002 19.9 6.70002C20.1 6.70002 20.2 6.80002 20.4 6.90002C20.5 7.00002 20.5 7.00002 20.6 7.10002C20.7 7.20002 20.8 7.40002 20.9 7.60002C20.9 7.70002 20.9 7.80002 20.9 7.90002C20.1 12.1 17.2 13.7 13.6 13.7H11.8C11.4 13.7 11 14 11 14.3L10.3 18.7L10.1 19.9C10 20.2 10.2 20.4 10.5 20.4H13.3C13.7 20.4 14 20.2 14.1 19.9V19.8L14.8 15.4V15.3C14.8 15 15.2 14.7 15.5 14.7H16C19.6 14.7 22.1 13.3 22.8 9.70002C23.1 8.20002 22.9 6.90002 22.1 6.00002C21.6 6.30002 20.9 6.60002 20.1 6.80002C19.5 6.90002 18.8 7.00002 18 7.00002H13.5C13.1 7.00002 12.7 7.30002 12.6 7.70002L11.7 13.3L11 14.2V14.3L12.1 7.10002Z" fill="#253B80"/></svg>
